<?xml version="1.0" encoding="UTF-8"?>
<svg id="Layer_1" data-name="Layer 1" xmlns="http://www.w3.org/2000/svg" version="1.1" viewBox="0 0 1275.59055 1417.32283">
  <defs>
    <style>
      .cls-1 {
        fill: none;
        stroke: #231f20;
        stroke-miterlimit: 10;
      }

      .cls-2 {
        fill: #231f20;
        stroke-width: 0px;
      }

      .cls-3 {
        opacity: .8;
      }
    </style>
  </defs>
  <path class="cls-1" d="M481.99881,517.00213s-4.45968,41.54373-12.83622,59.23756c-8.37654,17.69383-26.17144,45.99975,6.02838,49.40907,32.19983,3.40932,51.89158-10.4684,38.8916-28.89646"/>
  <ellipse class="cls-1" cx="429.48557" cy="521.34415" rx="27.01493" ry="28.48837" transform="translate(-29.72021 25.97799) rotate(-3.34876)"/>
  <ellipse class="cls-1" cx="553.9302" cy="510.75406" rx="34.73348" ry="36.62791" transform="translate(-28.88911 33.22917) rotate(-3.34876)"/>
  <line class="cls-1" x1="456.45436" y1="519.76611" x2="519.25603" y2="512.78296"/>
  <path class="cls-1" d="M675.48936,508.72515s2.21395-35.88464,22.36015-19.30822c17.49063,14.3914-10.39949,59.21878-6.51589,76.28949,5.71049,25.10092-19.88312,24.3994-20.70313,10.38528"/>
  <line class="cls-1" x1="588.60437" y1="508.72515" x2="675.48936" y2="506.94961"/>
  <path class="cls-1" d="M420.26072,449.01438c2.17931-4.30708,4.89344-8.73653,8.25785-13.21691,17.19538-22.89902,22.68048-123.05601,132.14658-113.70194,150.11804,12.82785,113.02555,75.36946,125.69414,163.19692"/>
  <path class="cls-1" d="M413.88342,497.98888s-4.79243-14.67832.78863-34.65082"/>
  <path class="cls-1" d="M434.57215,654.19674c-6.3977,26.78892,92.43331,19.2721,112.30665,15.91962,16.89409-2.8499,38.63004,20.07389-12.25843,40.41979-50.88847,20.3459-90.00981-17.72747-86.12743,16.45273,3.88238,34.1802-3.80172,54.83538,34.80562,60.51649,24.87553,3.66046,91.37246,12.80385,122.10806-21.87235,34.20229-38.58736,64.49519-73.36352,65.22388-95.51666,2.56985-78.1263,2.9336-88.89862,2.9336-88.89862"/>
  <path class="cls-1" d="M440.80056,547.28267s5.38467,39.18382-.60256,82.4538"/>
  <path class="cls-1" d="M451.05703,670.11637l-.99281,16.41574s69.02752,14.86239,115.87496-7.88426"/>
  <g>
    <line class="cls-1" x1="657.3923" y1="517.95331" x2="661.57659" y2="514.40007"/>
    <line class="cls-1" x1="657.0038" y1="514.8882" x2="661.5868" y2="518.149"/>
  </g>
  <g>
    <line class="cls-1" x1="655.28995" y1="501.048" x2="659.47424" y2="497.49476"/>
    <line class="cls-1" x1="654.90144" y1="497.98289" x2="659.48445" y2="501.24369"/>
  </g>
  <g>
    <line class="cls-1" x1="657.3923" y1="476.39375" x2="661.57659" y2="472.84052"/>
    <line class="cls-1" x1="657.0038" y1="473.32865" x2="661.5868" y2="476.58944"/>
  </g>
  <g>
    <line class="cls-1" x1="661.4595" y1="438.93181" x2="665.64379" y2="435.37857"/>
    <line class="cls-1" x1="661.071" y1="435.8667" x2="665.654" y2="439.1275"/>
  </g>
  <g>
    <line class="cls-1" x1="655.1008" y1="411.72804" x2="659.28509" y2="408.1748"/>
    <line class="cls-1" x1="654.7123" y1="408.66293" x2="659.2953" y2="411.92372"/>
  </g>
  <g>
    <line class="cls-1" x1="655.28995" y1="387.82393" x2="659.47424" y2="384.27069"/>
    <line class="cls-1" x1="654.90144" y1="384.75882" x2="659.48445" y2="388.01961"/>
  </g>
  <g>
    <line class="cls-1" x1="663.13157" y1="373.67558" x2="667.31586" y2="370.12234"/>
    <line class="cls-1" x1="662.74306" y1="370.61047" x2="667.32607" y2="373.87126"/>
  </g>
  <g>
    <line class="cls-1" x1="651.79999" y1="363.14547" x2="655.98428" y2="359.59223"/>
    <line class="cls-1" x1="651.41149" y1="360.08036" x2="655.99449" y2="363.34116"/>
  </g>
  <g>
    <line class="cls-1" x1="651.61084" y1="336.761" x2="655.79513" y2="333.20776"/>
    <line class="cls-1" x1="651.22234" y1="333.69589" x2="655.80534" y2="336.95669"/>
  </g>
  <g>
    <line class="cls-1" x1="639.34968" y1="348.80459" x2="643.53397" y2="345.25135"/>
    <line class="cls-1" x1="638.96118" y1="345.73948" x2="643.54418" y2="349.00027"/>
  </g>
  <g>
    <line class="cls-1" x1="603.50362" y1="324.88216" x2="607.68791" y2="321.32892"/>
    <line class="cls-1" x1="603.11511" y1="321.81705" x2="607.69812" y2="325.07784"/>
  </g>
  <g>
    <line class="cls-1" x1="612.12906" y1="337.14337" x2="616.31335" y2="333.59013"/>
    <line class="cls-1" x1="611.74056" y1="334.07826" x2="616.32356" y2="337.33906"/>
  </g>
  <g>
    <line class="cls-1" x1="590.40404" y1="333.70646" x2="594.58833" y2="330.15322"/>
    <line class="cls-1" x1="590.01554" y1="330.64135" x2="594.59854" y2="333.90215"/>
  </g>
  <g>
    <line class="cls-1" x1="571.65315" y1="341.52446" x2="575.83744" y2="337.97123"/>
    <line class="cls-1" x1="571.26465" y1="338.45936" x2="575.84765" y2="341.72015"/>
  </g>
  <g>
    <line class="cls-1" x1="564.96596" y1="319.0028" x2="569.15025" y2="315.44957"/>
    <line class="cls-1" x1="564.57746" y1="315.9377" x2="569.16046" y2="319.19849"/>
  </g>
  <g>
    <line class="cls-1" x1="525.54179" y1="318.66914" x2="529.72608" y2="315.1159"/>
    <line class="cls-1" x1="525.15328" y1="315.60403" x2="529.73629" y2="318.86483"/>
  </g>
  <g>
    <line class="cls-1" x1="507.66936" y1="327.19569" x2="511.85365" y2="323.64245"/>
    <line class="cls-1" x1="507.28086" y1="324.13058" x2="511.86386" y2="327.39138"/>
  </g>
  <g>
    <line class="cls-1" x1="498.78689" y1="337.73254" x2="502.97119" y2="334.1793"/>
    <line class="cls-1" x1="498.39839" y1="334.66743" x2="502.9814" y2="337.92823"/>
  </g>
  <g>
    <line class="cls-1" x1="510.41468" y1="339.68603" x2="514.59897" y2="336.13279"/>
    <line class="cls-1" x1="510.02618" y1="336.62092" x2="514.60918" y2="339.88171"/>
  </g>
  <g>
    <line class="cls-1" x1="524.15864" y1="332.64939" x2="528.34293" y2="329.09615"/>
    <line class="cls-1" x1="523.77013" y1="329.58428" x2="528.35314" y2="332.84507"/>
  </g>
  <g>
    <line class="cls-1" x1="527.77083" y1="346.0537" x2="531.95512" y2="342.50046"/>
    <line class="cls-1" x1="527.38232" y1="342.98859" x2="531.96533" y2="346.24938"/>
  </g>
  <g>
    <line class="cls-1" x1="536.65329" y1="335.51685" x2="540.83758" y2="331.96361"/>
    <line class="cls-1" x1="536.26479" y1="332.45174" x2="540.84779" y2="335.71253"/>
  </g>
  <g>
    <line class="cls-1" x1="550.19166" y1="346.24611" x2="554.37595" y2="342.69287"/>
    <line class="cls-1" x1="549.80316" y1="343.181" x2="554.38616" y2="346.4418"/>
  </g>
  <g>
    <line class="cls-1" x1="552.67231" y1="329.81601" x2="556.8566" y2="326.26277"/>
    <line class="cls-1" x1="552.28381" y1="326.7509" x2="556.86681" y2="330.01169"/>
  </g>
  <g>
    <line class="cls-1" x1="575.26066" y1="331.44641" x2="579.44495" y2="327.89317"/>
    <line class="cls-1" x1="574.87215" y1="328.3813" x2="579.45516" y2="331.64209"/>
  </g>
  <g>
    <line class="cls-1" x1="584.57042" y1="342.73015" x2="588.75471" y2="339.17692"/>
    <line class="cls-1" x1="584.18192" y1="339.66505" x2="588.76492" y2="342.92584"/>
  </g>
  <g>
    <line class="cls-1" x1="599.97399" y1="346.49018" x2="604.15828" y2="342.93694"/>
    <line class="cls-1" x1="599.58549" y1="343.42507" x2="604.16849" y2="346.68586"/>
  </g>
  <g>
    <line class="cls-1" x1="550.19166" y1="307.20109" x2="554.37595" y2="303.64785"/>
    <line class="cls-1" x1="549.80316" y1="304.13598" x2="554.38616" y2="307.39678"/>
  </g>
  <g>
    <line class="cls-1" x1="606.04459" y1="358.64163" x2="610.22888" y2="355.08839"/>
    <line class="cls-1" x1="605.65609" y1="355.57652" x2="610.23909" y2="358.83732"/>
  </g>
  <g>
    <line class="cls-1" x1="587.19744" y1="311.94247" x2="591.38173" y2="308.38924"/>
    <line class="cls-1" x1="586.80893" y1="308.87737" x2="591.39194" y2="312.13816"/>
  </g>
  <g>
    <line class="cls-1" x1="625.5016" y1="346.14827" x2="629.68589" y2="342.59503"/>
    <line class="cls-1" x1="625.11309" y1="343.08316" x2="629.6961" y2="346.34396"/>
  </g>
  <g>
    <line class="cls-1" x1="623.60508" y1="360.48031" x2="627.78937" y2="356.92707"/>
    <line class="cls-1" x1="623.21658" y1="357.4152" x2="627.79958" y2="360.67599"/>
  </g>
  <g>
    <line class="cls-1" x1="625.5016" y1="325.99871" x2="629.68589" y2="322.44547"/>
    <line class="cls-1" x1="625.11309" y1="322.9336" x2="629.6961" y2="326.19439"/>
  </g>
  <g>
    <line class="cls-1" x1="639.16054" y1="366.58208" x2="643.34483" y2="363.02884"/>
    <line class="cls-1" x1="638.77203" y1="363.51697" x2="643.35504" y2="366.77776"/>
  </g>
  <g>
    <line class="cls-1" x1="643.70655" y1="379.33831" x2="647.89084" y2="375.78507"/>
    <line class="cls-1" x1="643.31805" y1="376.2732" x2="647.90105" y2="379.534"/>
  </g>
  <g>
    <line class="cls-1" x1="662.51932" y1="353.14128" x2="666.70361" y2="349.58804"/>
    <line class="cls-1" x1="662.13082" y1="350.07617" x2="666.71382" y2="353.33696"/>
  </g>
  <g>
    <line class="cls-1" x1="676.38444" y1="364.22625" x2="680.56874" y2="360.67302"/>
    <line class="cls-1" x1="675.99594" y1="361.16115" x2="680.57895" y2="364.42194"/>
  </g>
  <g>
    <line class="cls-1" x1="663.80802" y1="398.19631" x2="667.99231" y2="394.64307"/>
    <line class="cls-1" x1="663.41952" y1="395.1312" x2="668.00252" y2="398.392"/>
  </g>
  <g>
    <line class="cls-1" x1="667.50714" y1="424.18241" x2="671.69143" y2="420.62918"/>
    <line class="cls-1" x1="667.11864" y1="421.11731" x2="671.70164" y2="424.3781"/>
  </g>
  <g>
    <line class="cls-1" x1="666.24804" y1="455.43519" x2="670.43233" y2="451.88195"/>
    <line class="cls-1" x1="665.85953" y1="452.37008" x2="670.44254" y2="455.63087"/>
  </g>
  <g>
    <line class="cls-1" x1="669.64938" y1="498.02556" x2="673.83367" y2="494.47232"/>
    <line class="cls-1" x1="669.26088" y1="494.96045" x2="673.84388" y2="498.22125"/>
  </g>
  <g>
    <line class="cls-1" x1="661.64864" y1="528.00894" x2="665.83294" y2="524.4557"/>
    <line class="cls-1" x1="661.26014" y1="524.94383" x2="665.84315" y2="528.20462"/>
  </g>
  <g>
    <line class="cls-1" x1="653.26896" y1="535.58445" x2="657.45325" y2="532.03121"/>
    <line class="cls-1" x1="652.88045" y1="532.51934" x2="657.46346" y2="535.78014"/>
  </g>
  <g>
    <line class="cls-1" x1="661.4595" y1="552.24158" x2="665.64379" y2="548.68834"/>
    <line class="cls-1" x1="661.071" y1="549.17647" x2="665.654" y2="552.43726"/>
  </g>
  <g>
    <line class="cls-1" x1="675.61116" y1="483.72874" x2="679.79545" y2="480.1755"/>
    <line class="cls-1" x1="675.22266" y1="480.66363" x2="679.80566" y2="483.92443"/>
  </g>
  <g>
    <line class="cls-1" x1="689.43063" y1="475.1671" x2="693.61492" y2="471.61386"/>
    <line class="cls-1" x1="689.04212" y1="472.10199" x2="693.62513" y2="475.36278"/>
  </g>
  <g>
    <line class="cls-1" x1="685.94512" y1="414.19087" x2="690.12942" y2="410.63763"/>
    <line class="cls-1" x1="685.55662" y1="411.12576" x2="690.13963" y2="414.38655"/>
  </g>
  <g>
    <line class="cls-1" x1="682.74122" y1="397.08847" x2="686.92551" y2="393.53523"/>
    <line class="cls-1" x1="682.35272" y1="394.02336" x2="686.93572" y2="397.28415"/>
  </g>
  <g>
    <line class="cls-1" x1="674.98252" y1="384.02861" x2="679.16681" y2="380.47537"/>
    <line class="cls-1" x1="674.59402" y1="380.9635" x2="679.17702" y2="384.22429"/>
  </g>
  <g>
    <line class="cls-1" x1="673.02892" y1="409.67729" x2="677.21321" y2="406.12405"/>
    <line class="cls-1" x1="672.64042" y1="406.61218" x2="677.22342" y2="409.87298"/>
  </g>
  <g>
    <line class="cls-1" x1="675.61116" y1="437.57409" x2="679.79545" y2="434.02085"/>
    <line class="cls-1" x1="675.22266" y1="434.50898" x2="679.80566" y2="437.76977"/>
  </g>
  <g>
    <line class="cls-1" x1="690.7937" y1="453.1188" x2="694.97799" y2="449.56556"/>
    <line class="cls-1" x1="690.40519" y1="450.05369" x2="694.9882" y2="453.31448"/>
  </g>
  <g>
    <line class="cls-1" x1="675.61116" y1="466.78178" x2="679.79545" y2="463.22854"/>
    <line class="cls-1" x1="675.22266" y1="463.71667" x2="679.80566" y2="466.97746"/>
  </g>
  <path class="cls-1" d="M677.90277,526.33016s6.36484,16.05898-1.21373,22.35818"/>
  <line class="cls-1" x1="535.9028" y1="519.40006" x2="553.27074" y2="490.81379"/>
  <line class="cls-1" x1="547.41835" y1="533.90568" x2="566.32661" y2="506.75482"/>
  <line class="cls-1" x1="413.88342" y1="528.69703" x2="428.51857" y2="510.48076"/>
  <line class="cls-1" x1="427.00921" y1="539.22597" x2="444.18143" y2="513.90196"/>
  <g class="cls-3">
    <path class="cls-2" d="M588.60437,463.55205c-2.30772-4.41822-9.8329-8.11669-8.41171-7.71719-2.25895-2.85738-7.02592-7.48303-8.1496-8.32652.25552.05503,1.69319.55212,1.79907.14493-4.48464-5.76027-16.82648-9.9241-21.16819-3.57429-1.29762-.58145-1.48159-.05981-2.00579,1.07763-1.14954.1878-2.27311-1.58757-3.17522-.23566-.62637.55168-2.24207-7.00482-2.39428-5.62472-.55632,5.05221-.15159,1.37799-1.60255.85844-1.42218,3.10103-1.1429-.12342-4.05542,2.61756-2.05374,1.53739-2.45119-1.70521-4.30601,1.44917-2.44188,1.90542-6.18602,4.70838-8.35556.61025-2.03049,3.03571-4.62687-.75478-6.75331-.25519-2.609,1.40339-3.85242,2.33522-6.02204-.18593-1.54303,1.35707-4.94239-.29452-7.07644.54197-1.4852,2.95646-1.44094,4.96735-1.77409,8.07128.93121,1.71382,2.64579,3.46826,1.54228,6.51413,1.08378.20836.5859,3.94057.59425,4.86486,1.87361,1.7991,3.94557,5.21923,5.82381,3.56143.73938-.17922,1.44706-3.07307,2.40288-1.28984.32761-1.25553.3045-2.75474.45604-4.13273,1.34941,1.43343,4.27278,3.96358,4.25474-.99576,8.93211-8.04695,22.05346,2.1026,32.49892-2.5742,16.24591-8.69122,32.23832,9.14391,35.8782,4.60038Z"/>
  </g>
  <g class="cls-3">
    <path class="cls-2" d="M395.48253,471.46032c1.47146-4.08035,8.59601-9.80825,7.45966-9.32556,1.45721-2.44079,5.58851-5.53733,4.43395-7.70357.49047-3.40357,9.9457-6.45123,11.63147-6.09799,1.32532.20575,2.81978,2.64208,4.27622,2.72591,1.0537-.65211,1.21788-.14999,1.76507.75505.96978.05643,1.72345-1.60159,2.60393-.50393.57299.4237,1.16069-6.33625,1.42346-5.14359,1.38667,5.96253-.20691-2.41333,2.51188,1.97511.84098-1.26054,1.32363.20311,2.51447.53366,1.85175,1.15215,1.85912-1.72088,3.70663.86372,2.18504,1.42454,5.59251,3.54227,6.97428-.25015,1.9811,2.46434,3.75365-1.09412,5.56271-.85669,3.01063,1.85418,3.85613-.83898,6.31439-2.40729,4.8597-2.11606,5.86426,5.66025,6.82729,8.3816-.61472,1.59589-1.83747,3.31439-.63016,5.84191-.87862.281-.09106,3.51578-.00939,4.31022-1.37194,1.74913-2.74728,4.9345-4.46579,3.66091-.62922-.0787-1.49343-2.55683-2.11614-.90259-.39557-1.06727-.52508-2.38053-.7871-3.57141-.97444,1.38016-3.14252,3.86709-3.6193-.47168-8.05273-6.1908-18.06705,3.88963-27.14636.79754-14.32219-6.07654-25.84944,11.06795-29.23119,7.38885Z"/>
  </g>
  <path class="cls-1" d="M475.33028,647.72477"/>
  <path class="cls-2" d="M417.97718,641.46245c.34519.5308.50998,1.31606.88258,1.5457-2.84418,7.64231,3.54522.0322,5.06406,4.38566-.73925,5.65308,17.51597,8.78038,23.49917,8.24953,12.37085-6.24473,22.73733,12.58228,24.27959,4.11882,1.51284-6.82104,6.94426.1066,11.97283-1.33594,4.47052-.96428,6.14827-5.39516,10.52665-1.01573,10.83883,7.97868,10.86055,9.00654,14.01308-4.35725,1.83474,8.75895,9.59883,10.50713,17.12547,6.04843.91567.88809.63579,3.93949,1.16046,5.60707,1.15357,4.54065,5.25696-2.6978,8.61277-2.66469,4.44653-1.97239,13.64917,3.3392,14.98765-2.92307-.0712-1.75484,2.02844-2.47728,3.0698-3.3457,1.17465-2.58578,1.14407-4.9062,4.84137-5.12672-4.0774-3.10505,1.46834-7.08771-.18189-10.93825-10.22094,2.58521-3.37224-3.33589-9.41589-6.75321,3.09457-8.13434-10.57419,3.6549-12.28351,4.52177-.60557-1.45567-.99546-2.76463-1.41589-4.39331-1.18967,1.83664-1.3034-4.77854-4.8698-1.12265-.8515-3.31578-6.56968-2.18108-7.93629-3.35034-.04812.61873-.37027,2.13668-.96229,2.77679-2.0297,2.85784-4.11455-.22691-6.10619-1.40798-3.49151-.45779-8.35134,2.41201-14.28144,1.61278-.69806.92587-1.22092,1.60772-2.15586.47632.37186,2.87509.80469,6.2665.3387,8.97248-.9517-5.39059-3.17031.61513-5.71152-4.22399-5.95981-2.30741-8.19254,1.02879-12.78175,3.33823-1.35789,1.40316-1.94067-1.94733-1.9396-2.80244-2.513-2.14669-10.51996-2.2783-13.70437-3.06522-.74039,21.98512-12.64942-7.20083-15.47338-11.33543-4.60962,17.61883-2.84228,3.64964-11.42374,7.44925-.78989,2.57154-5.09553,7.16918-7.19874,8.26121-.51636-.48389-1.12721-3.00534-1.94506-2.54401-4.35072,2.69233-6.64735-3.12251-10.8129-3.9865-2.01122-.80913-.19692,8.52281.22594,9.32837ZM499.58702,632.92549c-.01938-.01134-.03338-.02648-.05256-.03797.06893-.03492.05689.00514.05256.03797Z"/>
  <path class="cls-2" d="M516.68431,737.67954c-2.03055,1.42899-5.46818,1.64268-6.50297-1.36672-2.72014-1.13403-2.88867,2.24664-3.46032-3.00735-1.09898,1.38751-6.23772,10.76832-5.55401,3.30752-2.33263-.0863-4.15301.10642-5.38781,1.41767-1.16866-.88422-2.3829-2.26786-4.07515-1.64434-1.03028,1.56624-1.52249-.58372-2.05155,1.23451-.04402-.94959.23519-2.10161.47399-3.07776-1.41696.05728-4.1641-1.33176-5.32868-1.35463-.70255.33043-1.51644,1.31179-2.06788.2493.02305-1.35005-2.12992-1.20561-2.95366-.14651-1.03461-1.39769-1.31706.87938-1.64904.1992-.20824,4.28723-4.69911-4.47362-4.50631-.5733-1.79583.87825-.70768,3.28487-3.37435,1.96182-.32039,2.47475.0035,3.32925.88643,5.71474,2.26288,4.49758,4.32228.96602,8.25935,4.59568.73955-5.65232,3.75318,2.77068,6.65538-3.79708.05158,5.87237,2.29477,2.87171,6.04254,1.33892,2.70582,3.4083,5.5758-.91075,6.72752,4.57588.55805,1.00567,1.99481,1.70388,3.01358,1.08276,2.32362-2.24833,3.1331-4.49557,5.22274-6.0531,1.33252-.13397,6.03162-.06731,5.29897,2.46792,1.45802-.93913.83363-3.11987,2.20716-4.20034,1.01699.44797,1.91893.71815,1.41196-.80922.24163-.24452,1.49435-2.1891.71211-2.11557ZM489.72106,734.78085c-.00678.00322-.012.00789-.01884.01105-.0001-.01147-.00245-.02574.01884-.01105ZM492.84545,742.54442c.00059.01097-.00121-.00366-.00352-.02418.01466.00096.00567.0154.00352.02418Z"/>
</svg>