<?xml version="1.0" encoding="utf-8"?>
<!-- Generator: Adobe Illustrator 27.0.0, SVG Export Plug-In . SVG Version: 6.00 Build 0)  -->
<svg version="1.1" id="Layer_2" xmlns="http://www.w3.org/2000/svg" xmlns:xlink="http://www.w3.org/1999/xlink" x="0px" y="0px"
	 viewBox="0 0 1366 768" style="enable-background:new 0 0 1366 768;" xml:space="preserve">
<g>
	<polygon points="709.7,581.8 689.7,570.5 669.7,581.8 627.1,588.5 579.2,584.7 522.3,559.7 506.2,523 478.4,518.8 478.4,207.9 
		566.9,185.8 600.7,183 635.1,183 667.6,187.4 685.7,192.1 689.7,192.6 693.7,192.1 711.8,187.4 744.3,183 778.8,183 812.5,185.8 
		901,207.9 901,518.8 873.3,523 857.2,559.7 800.2,584.7 752.3,588.5 	"/>
</g>
<g>
	<polygon points="713.1,543.2 689.7,530 666.3,543.2 626.7,549.4 581.7,545.8 529.8,523.1 513.1,484.9 488.4,481.2 488.4,242.7 
		568.6,222.7 601.1,220 634.5,220 665.6,224.2 683.9,229 689.7,229.7 695.5,229 713.8,224.2 745,220 778.3,220 810.9,222.7 
		891,242.7 891,481.2 866.3,484.9 849.6,523.1 797.7,545.8 752.7,549.4 	"/>
</g>
<g>
	<polygon points="716.4,518.6 689.7,503.6 663,518.6 626.3,524.4 584.2,521 537.4,500.6 520.1,460.9 498.4,457.6 498.4,274.5 
		570.2,256.6 601.5,254 633.8,254 663.7,258 682,262.9 689.7,263.7 697.4,262.9 715.7,258 745.6,254 777.9,254 809.2,256.6 
		881,274.5 881,457.6 859.3,460.9 842,500.6 795.2,521 753.1,524.4 	"/>
</g>
<g>
	<polygon points="719.7,499 689.7,482.1 659.7,499 625.9,504.3 586.6,501.2 545,483 528.5,445.2 527.7,441.9 508.4,439 508.4,298.3 
		571.8,282.5 601.9,280 633.1,280 661.7,283.9 680.2,288.7 689.7,289.8 699.2,288.7 717.7,283.9 746.3,280 777.5,280 807.6,282.5 
		871,298.3 871,439 851.7,441.9 850.9,445.2 834.4,483 792.8,501.2 753.5,504.3 	"/>
</g>
<g>
	<polygon points="723.1,478.4 691.8,460.8 689.7,457.4 687.6,460.8 656.3,478.4 625.5,483.2 589.1,480.3 552.6,464.4 538,431 
		535.8,422 518.4,419.4 518.4,311.1 573.5,297.4 602.3,295 632.4,295 659.8,298.7 678.4,303.6 689.7,304.8 701.1,303.6 719.6,298.7 
		747,295 777.1,295 806,297.4 861,311.1 861,419.4 843.6,422 841.4,431 826.8,464.4 790.3,480.3 753.9,483.2 	"/>
</g>
<g>
	<polygon points="726.4,461.8 699,446.4 689.7,431.4 680.4,446.4 653,461.8 625.2,466.2 591.6,463.5 560.2,449.8 547.5,420.7 
		543.9,406.1 528.4,403.8 528.4,320.9 575.1,309.3 602.8,307 631.8,307 657.8,310.5 676.5,315.4 689.7,316.9 702.9,315.4 
		721.6,310.5 747.6,307 776.7,307 804.3,309.3 851,320.9 851,403.8 835.6,406.1 831.9,420.7 819.2,449.8 787.8,463.5 754.3,466.2 	
		"/>
</g>
<g>
	<polygon points="729.8,449.2 706.1,435.9 689.7,409.4 673.3,435.9 649.7,449.2 624.8,453.1 594.1,450.7 567.8,439.2 557,414.5 
		551.9,394.2 538.4,392.2 538.4,332.7 576.7,323.2 603.2,321 631.1,321 655.9,324.3 674.7,329.3 689.7,331 704.7,329.3 723.5,324.3 
		748.3,321 776.3,321 802.7,323.2 841,332.7 841,392.2 827.5,394.2 822.4,414.5 811.6,439.2 785.4,450.7 754.6,453.1 	"/>
</g>
<g>
	<polygon points="733.1,434.6 713.3,423.5 698.4,399.5 691.6,381.4 689.7,380.6 687.9,381.4 681,399.5 666.1,423.5 646.3,434.6 
		624.4,438.1 596.5,435.8 575.4,426.6 566.5,406.2 560.7,383 559,380.2 548.4,378.6 548.4,340.6 578.4,333.1 603.6,331 630.4,331 
		653.9,334.2 672.8,339.1 689.6,341 689.9,341 706.6,339.1 725.5,334.2 749,331 775.8,331 801.1,333.1 831,340.6 831,378.6 
		820.5,380.2 818.7,383 812.9,406.2 804,426.6 782.9,435.8 755,438.1 	"/>
</g>
<g>
	<polygon points="690.4,367 699.4,371 707.4,392 720.4,413 736.4,422 755.4,425 780.4,423 796.4,416 803.4,400 809.4,376 814.4,368 
		821,367 821,348.4 799.4,343 775.4,341 749.7,341 727.4,344 708.4,349 690.4,351 689,351 671,349 652,344 629.8,341 604,341 
		580,343 558.4,348.4 558.4,367 565,368 570,376 576,400 583,416 599,423 624,425 643,422 659,413 672,392 680,371 689,367 	"/>
</g>
</svg>
