<?xml version="1.0" encoding="UTF-8"?>
<svg id="Layer_1" data-name="Layer 1" xmlns="http://www.w3.org/2000/svg" version="1.1" viewBox="0 0 500 500">
  <defs>
    <style>
      .cls-1 {
        fill: #ccc;
      }

      .cls-1, .cls-2, .cls-3, .cls-4 {
        stroke-width: 0px;
      }

      .cls-2 {
        fill: #000;
      }

      .cls-3 {
        fill: aqua;
      }

      .cls-4 {
        fill: #e6e6e6;
      }
    </style>
  </defs>
  <path class="cls-3" d="M386.8,184.6c16.6,8.4,17.2,26.9,17.2,26.9v45.1c0,3.2-.6,5.6-1.6,7.5-1.3,2.3-3.2,3.8-5.6,4.6h0c-1.3.5-2.7.8-4.2,1-.4,0-.7,0-1.1.1-4.7.5-10.2.1-15.7.1-7.8,0-13-7.5-18.3-14h0c-2.1-2.6-4.2-5-6.5-6.8-2.2-1.7-4.6-2.8-7.3-2.8-8,0-24,25.6-30.8,33.5s-21.4,7.1-56.5,3.6c-12.9-1.3-31.5-5.7-49.8-10.8-10.6-2.9-21.1-6.1-30.3-8.9-2.8-13.1-7.4-24.3-11.9-31.8-1.6-2.6-3.6-4.9-5.9-7.1,7.6-3.8,17.7-8.8,28.7-14,23.9-11.2,52.1-23.4,69.2-27.1,33.9-7.4,94.9-7.4,120.9-2.4,3.7.7,6.8,1.8,9.6,3.2h0Z"/>
  <path class="cls-1" d="M357.5,255.9c1.3,6.5,3.7,14.5,7.9,20.5l.5.7c6.3,8.9,10.1,14.2,9.2,19.5-.5,2.7-2.3,5.1-5.4,7.1-5.8,3.8-11.2,7.2-11.2,7.2-.4.3-.9.4-1.4.4-.9,0-1.8-.4-2.3-1.2-.8-1.2-.4-2.9.8-3.7,0,0,5.4-3.4,11.2-7.2,2.8-1.9,3-3.2,3.1-3.7.6-3.1-3.1-8.2-8.3-15.4l-.5-.7c-6.9-9.7-9.3-23.7-10.1-30.4,2.3,1.8,4.4,4.2,6.5,6.8h0Z"/>
  <path class="cls-2" d="M330.1,356.2c19.1,0,26.5,7.8,26.5,7.8l26.3-21.6,2.3-1.9,37.1-30.4c.8-.7,1-1.9.4-2.8l-26-38.8c2.4-.9,4.4-2.3,5.6-4.6l30.9,45.4c.6.9.4,2-.4,2.7l-49.4,43.1-3.4,3-25.5,22.2s-5.2,11.3-14.9,13.4c-9.2,1.9-20.6,2.2-27.4.8-4.9-1-12.9-6.5-12.9-15s15.4-23.5,30.7-23.4Z"/>
  <path class="cls-4" d="M303.9,300.2c.1,1,1.4,9.8,7.2,12.3,1,.4,2,.6,3.1.6,2.3,0,4.9-1,7.5-3,2.1-1.6,3.8-2.7,5.1-3.5,1,.9,3.2,2.3,5.5,1.6.9-.3,2.5-1.2,3-3.9.5-2.9-.8-4.2-1.7-4.8-2.2-1.4-5.6-.9-15.1,6.2-1.5,1.1-3.7,2.4-5.3,1.7-1.2-.5-2.1-2-2.8-3.6-.7-1.6-1.1-3.4-1.2-4.5-.2-1.5-1.5-2.5-3-2.3-1.5.2-2.5,1.5-2.3,3ZM206.5,272.6c18.3,5,36.9,9.5,49.8,10.8,35.1,3.5,49.8,4.3,56.5-3.6s22.8-33.5,30.8-33.5,5.1,1.1,7.3,2.8c.8,6.7,3.2,20.7,10.1,30.4l.5.7c5.1,7.2,8.8,12.4,8.3,15.4,0,.4-.3,1.8-3.1,3.7-5.7,3.8-11.1,7.1-11.2,7.2-1.2.8-1.6,2.4-.8,3.7.5.8,1.4,1.2,2.3,1.2s1-.1,1.4-.4c0,0,5.5-3.4,11.2-7.2,3.2-2.1,4.9-4.4,5.4-7.1,1-5.3-2.8-10.6-9.2-19.5l-.5-.7c-4.2-6-6.6-14-7.9-20.5,5.3,6.5,10.5,14,18.3,14s11,.4,15.7-.1c-.2,28.6-5.9,55.3-8.5,72.7l-26.3,21.6s-7.5-7.7-26.5-7.8c-15.3,0-30.7,14.9-30.7,23.4s8,14,12.9,15c6.8,1.4,18.2,1.1,27.4-.8,9.7-2.1,14.9-13.4,14.9-13.4l25.5-22.2c-1.9,35.5-24.7,81.6-63.2,81.6s-63.2-6.5-84-13c-11.9-14.3-19.8-33-28.2-60-8.9-28.4-1.1-64.9,1.8-94.3Z"/>
  <path class="cls-1" d="M306.2,297.2c1.5-.2,2.8.9,3,2.3.1,1.1.5,2.8,1.2,4.5.7,1.6,1.6,3.1,2.8,3.6,1.6.7,3.8-.6,5.3-1.7,9.5-7.1,12.9-7.7,15.1-6.2.9.5,2.2,1.9,1.7,4.8-.5,2.7-2.1,3.6-3,3.9-2.3.7-4.5-.8-5.5-1.6-1.3.8-3,2-5.1,3.5-2.7,2-5.2,3-7.5,3s-2.1-.2-3.1-.6c-5.8-2.5-7.1-11.3-7.2-12.3-.2-1.5.9-2.8,2.3-3Z"/>
  <path class="cls-4" d="M187.1,210.9c-6.7-7.6-12.9-17.1-15.1-40.5-3.4-36.2,28.3-66.8,41.5-77.9,34.5-10.8,83-17,127.5,10.1,18.6,13.1,32.5,33.1,40.7,61.5,2,6.8,3.6,13.7,5,20.5-2.8-1.4-5.9-2.5-9.6-3.2-25.9-5-87-5-120.9,2.4-17.1,3.7-45.3,15.9-69.2,27.1Z"/>
  <path class="cls-1" d="M176.2,263.7c9.2,2.9,19.7,6,30.3,8.9-2.9,29.4-10.7,65.9-1.8,94.3,8.4,26.9,16.3,45.6,28.2,60-15.6-4.9-25.3-9.2-25.3-9.2-40.1-19.5-52-38.6-64.7-62.7,7.8-2.1,15.7-7.3,22.4-17.5,15.2-23.1,15.7-51.1,10.9-73.8Z"/>
  <path class="cls-2" d="M176.2,263.7c4.8,22.6,4.4,50.7-10.9,73.8-6.7,10.2-14.6,15.3-22.4,17.5-14.7,4-29.3-2.5-36.3-6.4,1,.3,1.9.5,2.8.6,8.8.8,19.5.8,28.9-2.8,7.3-2.8,13.9-7.9,18.3-16.4,8.7-16.9,11.9-48.9,2.4-71.7h0c-1.4-3.5-3.2-6.7-5.2-9.7-3-4.4-6.3-8.4-9.6-12.1-13.7-15-27.9-23.6-27.9-23.6,0,0,0-2,.4-5.4,8.1,1.4,29.2,5.9,41.7,17.4,2.3,2.1,4.3,4.4,5.9,7.1,4.5,7.4,9.1,18.7,11.9,31.8Z"/>
  <path class="cls-2" d="M240.1,63.4c67.4-5.3,101,39.1,101,39.1-44.5-27-93.1-20.9-127.5-10.1-27.7,8.7-46.3,20.5-46.3,20.5,0-.4-.2-.8-.2-1.2-.8-3.4-2-5.8-3.4-7.7-2.9-3.9-6.7-4.9-8.6-5.2-.8-.1-1.2,0-1.2,0,0,0,14.9-18.4,50.3-28.9,10.2-3,22.1-5.4,35.9-6.5Z"/>
  <path class="cls-1" d="M172.1,170.4c2.2,23.4,8.4,32.9,15.1,40.5-11,5.2-21.1,10.2-28.7,14-12.5-11.5-33.7-16-41.7-17.4.9-10.8,3.7-35.2,12-50,10.6-19,22.4-33.2,38.3-45.7,0,.4.2.8.2,1.2,0,0,18.6-11.8,46.3-20.5-13.2,11.1-45,41.7-41.5,77.9Z"/>
  <path class="cls-4" d="M144.2,236.5c3.3,3.7,6.6,7.7,9.6,12.1,2,2.9,3.8,6.2,5.2,9.7h0c9.5,22.8,6.3,54.8-2.4,71.7-4.4,8.5-10.9,13.5-18.3,16.4-9.4,3.6-20.1,3.6-28.9,2.8-.9,0-1.8-.3-2.8-.6h0c-3.6-1.1-7.8-3.5-12-7,20.5-3.1,34.5-27.7,34.5-55.3s-9.8-50.1-32.8-50.1-12.8,1.8-18.9,4.9c.6-1.1,1.2-2.2,1.9-3.3,9.3-15.2,20.3-23.7,20.3-23.7,0,0,.8-41.9,13.3-65.5,11-20.8,36.2-44.3,42.1-49.7,1.9.2,5.6,1.3,8.6,5.2,1.4,1.8,2.6,4.3,3.4,7.7-15.9,12.5-27.6,26.7-38.3,45.7-8.3,14.8-11.2,39.2-12,50-.3,3.4-.4,5.4-.4,5.4,0,0,14.3,8.6,27.9,23.6Z"/>
  <path class="cls-1" d="M96.4,236.2c23,0,32.8,20.7,32.8,50.1s-13.9,52.2-34.5,55.3c-.4-.3-.7-.6-1.1-.9-.7-.6-1.4-1.3-2.1-2-.8-.7-1.5-1.5-2.2-2.3-.7-.8-1.4-1.6-2.1-2.4-.3-.4-.6-.7-1-1.1-.8-.9-1.6-1.9-2.3-2.9-.6-.8-1.1-1.5-1.7-2.3-.9-1.2-1.8-2.6-2.6-3.9-.5-.8-1-1.7-1.5-2.5-7-12.2-11.8-27.6-11-44.3,0-.9,0-1.8.2-2.6,0-.9.1-1.7.2-2.6,0-.8.2-1.5.3-2.2,0-.2,0-.3,0-.5.1-.8.2-1.5.4-2.3.1-.8.3-1.6.5-2.4.2-.8.3-1.5.5-2.2,0-.1,0-.2,0-.3.2-.7.4-1.4.6-2.1.2-.8.4-1.5.7-2.3.4-1.2.8-2.3,1.2-3.5.1-.3.2-.7.4-1,.3-.8.6-1.6.9-2.4.3-.8.6-1.5.9-2.2.6-1.2,1.1-2.5,1.7-3.7.3-.6.6-1.2.9-1.7.3-.6.7-1.2,1-1.9,6-3.1,12.5-4.9,18.9-4.9Z"/>
</svg>